<svg xmlns="http://www.w3.org/2000/svg" width="500" height="200"><g><title>background</title><rect id="canvas_background" width="502" height="202" x="-1" y="-1" fill="none"/></g><g><title>Layer 1</title><g id="svg_1" stroke="null"><path id="svg_2" fill="#F4831F" stroke="null" d="m54.061432,117.819031c0,0 0.455654,-17.122482 -8.944252,-25.048973c0,0 8.487701,-7.608887 7.681068,-24.654671c0,0 0.315796,-22.116577 -24.411961,-23.921127l-27.672787,0l0,100.152557l30.410286,0c0,-0.0009 24.095264,1.356125 22.937645,-26.527786zm-34.400148,-57.042751c14.436403,0 14.731451,10.48624 14.731451,10.48624c0,14.873108 -14.731451,12.031845 -14.731451,12.031845l0,-22.518085zm15.993734,54.926014c-0.315796,14.205421 -15.993734,11.574379 -15.993734,11.574379l0,-25.148224c18.045507,0 15.993734,13.573845 15.993734,13.573845z"/><path id="svg_3" fill="#F4831F" stroke="null" d="m108.50563,127.468864l-0.009026,-42.596428c0,0 -0.069481,-17.677368 -23.850746,-17.677368c-23.778564,0 -23.857059,16.349236 -23.857059,16.349236l0,43.20636c0,0 0.077591,19.068687 23.647732,19.068687c23.991501,-0.000015 24.069099,-18.350487 24.069099,-18.350487zm-17.251503,-40.49231l-0.004517,38.091354c0,0 -0.240005,5.365822 -6.659691,5.365822c-7.048576,0 -6.65699,-5.365822 -6.65699,-5.365822l0,-38.091354c0,0 -0.181351,-4.52491 6.65699,-4.52491c6.419685,0.0009 6.664207,4.52491 6.664207,4.52491z"/><path id="svg_4" fill="#F4831F" stroke="null" d="m163.525482,127.468864l-0.027985,-42.596428c0,0 0.335663,-17.677368 -23.446518,-17.677368c-23.778572,0 -23.660378,16.349236 -23.660378,16.349236l0,43.20636c0,0 -0.119095,19.068687 23.451057,19.068687c23.991501,-0.000015 23.683823,-18.350487 23.683823,-18.350487zm-17.062943,-40.49231l-0.004501,38.091354c0,0 -0.04332,5.365822 -6.462997,5.365822c-7.048584,0 -6.460297,-5.365822 -6.460297,-5.365822l0,-38.091354c0,0 -0.378067,-4.52491 6.460297,-4.52491c6.419678,0.0009 6.467499,4.52491 6.467499,4.52491z"/><path id="svg_5" fill="#3C81C3" stroke="null" d="m335.305176,127.468864l-0.315826,-42.596428c0,0 0.14798,-17.677368 -23.63327,-17.677368c-23.778564,0 -23.946411,16.349236 -23.946411,16.349236l0,43.20636c0,0 0.167847,19.068687 23.737061,19.068687c23.990601,-0.000015 24.158447,-18.350487 24.158447,-18.350487zm-17.253296,-40.49231l-0.004547,38.091354c0,0 -0.329285,5.365822 -6.748993,5.365822c-7.048584,0 -6.746338,-5.365822 -6.746338,-5.365822l0,-38.091354c0,0 -0.09201,-4.52491 6.746338,-4.52491c6.419678,0.0009 6.75354,4.52491 6.75354,4.52491z"/><path id="svg_6" fill="#F4831F" stroke="null" d="m171.917526,69.208038l0,75.138779l16.240967,0l0,-54.939537c0,0 13.534134,-11.679054 13.534134,-0.946487l0,55.886024l15.338669,0l0,-54.623749c0,0 11.729584,-12.468536 11.729584,-1.262276s0,55.886024 0,55.886024l17.143204,0l0,-65.830002c0,0 0.160614,-10.416763 -11.559006,-10.416763c0,0 -9.881744,-1.080933 -17.275894,6.313217c0,0 -9.962906,-14.678219 -28.008408,-0.947395l0,-4.261436l-17.14325,0.003601z"/><polygon id="svg_7" fill="#3C81C3" stroke="null" points="239.548 60.434 239.548 44.193 293.686 44.193 293.686 60.434 276.543 60.434 276.543 144.346 257.595 144.346 257.595 60.434"/><polygon id="svg_8" fill="#3C81C3" stroke="null" points="339.367 69.457 353.814 144.346 368.262 144.346 373.766 109.816 380.187 144.346 395.78 144.346 408.851 69.457 392.112 69.457 386.837 103.398 380.874 69.457 367.573 69.457 361.727 103.914 356.107 69.457"/><path id="svg_9" fill="#3C81C3" stroke="null" d="m415.572479,69.457069l0,74.888847l18.045502,0l0,-54.497429c0,0 11.729584,-12.088676 11.729584,-1.400322l0,55.898651l17.14325,0l0,-64.81765c0,0 0.055939,-11.522957 -12.862885,-11.522957c0,0 -9.694,-0.20211 -16.912201,6.535179l0,-5.08432l-17.14325,0z"/><polygon id="svg_10" fill="#3C81C3" stroke="null" points="475.423 42.141 479.366 122.843 489.634 120.431 492.867 42.122"/><polygon id="svg_11" fill="#3C81C3" stroke="null" points="499.286 144.332 489.892 130.519 479.431 132.926 468.928 144.317 470.537 145.446 473.196 145.149 473.206 151.162 484.145 157.878 496.57 153.613 496.57 145.493"/></g></g></svg>